<svg width="64" height="64" viewBox="0 0 64 64" fill="none" xmlns="http://www.w3.org/2000/svg">
<g clip-path="url(#clip0_128_17)">
<path d="M53.2209 54.9534H31.7513C18.9557 54.9534 8.54931 44.547 8.54931 31.7514C8.54931 23.9041 12.5918 16.5777 19.0802 12.3314L16.8042 18.5254L53.2209 54.9534H63.4914V9.47785H54.9534V0H31.7513C29.113 0 26.4972 0.328384 23.972 0.962505L23.8135 0.996476C9.78358 4.6087 0 17.2572 0 31.7514C0 49.2576 14.2451 63.5027 31.7513 63.5027H53.2322V54.9647L53.2209 54.9534ZM29.2262 9.47785H54.9534V44.6036L26.701 16.3399L29.2262 9.46652V9.47785Z" fill="#D7F20F"/>
</g>
<defs>
<clipPath id="clip0_128_17">
<rect width="63.4914" height="63.4914" fill="white"/>
</clipPath>
</defs>
</svg>
