<svg width="430" height="332" viewBox="0 0 430 332" fill="none" xmlns="http://www.w3.org/2000/svg">
<path d="M-59.8599 156.801C-38.495 156.629 -14.9072 156.589 5.80433 150.902C43.1797 140.64 41.8883 120.262 66.5585 98.0784C81.401 84.7312 103.468 68.5824 121.048 59.2041C134.679 51.9317 152.272 48.9555 166.532 42.022C178.508 36.1988 189.357 24.5504 202.24 21.4457C211.862 19.1267 220.486 18.7152 230.737 15.5906C242.893 11.8855 253.299 5.74627 264.604 1.8934C286.892 -5.70311 293.107 10.7896 285.407 29.4595C274.239 56.5384 245.323 59.7363 222.54 68.9846C214.484 72.255 200.195 84.2584 194.159 90.7835C193.116 91.9105 191.932 92.7724 191.682 94.4464C198.581 97.2936 205.488 100.155 212.715 102.169C222.879 105.002 229.922 106.492 240.2 110.161C251.605 114.231 267.677 109.564 279.846 108.961C285.754 108.669 312.786 110.077 315.739 108.386C318.105 107.032 316.922 104.348 317.763 101.987C319.522 97.0476 325.187 91.1666 330.228 89.5626C337.716 87.1785 345.903 91.7288 353.086 89.7116C357.656 88.4284 362.874 84.5414 367.57 82.6603C375.285 79.5695 399.588 71.9797 407.23 71.1175C414.49 70.2978 420.444 71.5099 425.456 77.0326C440.144 93.213 407.81 102.697 397.63 108.672C385.333 115.887 374.058 125.002 361.321 132.002C356.18 134.827 349.632 135.073 346.705 141.415C342.561 150.393 342.094 160.121 336.005 168.96C329.112 178.966 317.531 180.853 312.28 190.694C308.926 196.978 307.33 203.772 303.506 210.217C290.013 232.955 254.834 234.073 233.501 247.575C217.7 257.577 217.723 264.634 195.903 267.075C173.412 269.591 148.919 268.602 125.96 270.505C80.7618 274.25 33.917 279.115 -9.04828 293.444C-28.7741 300.022 -48.3797 307.421 -67.8561 314.707C-83.8538 320.692 -99.4053 328.769 -116.4 331.804L-115.621 329.395L-81.7139 317.744L-77.6937 305.301L-111.212 315.749L-110.694 314.144L-76.7341 302.539C-74.7168 296.754 -73.8769 290.626 -73.2213 284.573L-103.95 293.271L-103.69 292.468C-96.0636 289.579 -87.8204 288.223 -80.1907 285.356C-78.2386 284.623 -73.3787 283.177 -72.7045 281.637L-71.8483 261.082L-95.3904 266.779L-94.8717 265.174C-91.3835 263.576 -72.2454 260.684 -71.3566 258.203C-70.6703 256.287 -72.5302 234.309 -73.6875 233.913L-85.7937 237.077L-85.275 235.472L-73.9165 232.778L-73.3803 231.811C-73.1574 223.923 -75.2063 215.96 -76.4565 208.178L-74.9002 203.362L-40.3597 198.091C-39.8248 197.076 -40.1132 196.388 -40.3803 195.416C-40.9536 193.333 -48.1102 176.9 -49.0262 176.398L-66.8585 178.476L-66.3399 176.87L-50.4797 174.441C-49.2876 172.446 -58.1236 160.785 -60.8931 160.012L-59.8558 156.802L-59.8599 156.801ZM264.422 17.6821C268.272 20.8197 268.865 26.0253 270.46 30.344C279.889 22.774 295.761 10.9093 277.132 2.76016C274.204 9.12722 268.701 12.4765 264.422 17.6821ZM273.532 2.98827C272.447 0.724202 255.001 8.6817 255.46 9.54681L263.195 15.5551C266.776 11.4229 272.632 9.00707 273.532 2.98827ZM285.697 20.2169C283.708 19.0899 284.143 20.3021 283.193 21.1524C281.268 22.8751 272.037 30.9919 271.344 32.1953C270.083 34.3878 272.996 40.9513 270.989 43.8296C278.7 38.4392 283.084 28.9978 285.697 20.2169ZM225.154 21.0316C228.556 22.5165 229.575 27.6713 233.598 27.8457C239.373 28.0953 254.559 18.7011 260.98 17.103C261.389 15.8364 254.65 9.79777 252.38 10.7153L225.154 21.0316ZM240.971 43.7667C242.088 45.0188 245.337 43.5809 246.814 43.0872C249.493 42.1934 267.135 34.256 267.887 33.0992C269.788 30.175 265.412 20.6998 262.82 18.2902L233.914 29.6346L240.971 43.7667ZM392.441 79.509L397.708 86.5147C406.013 82.2851 415.005 81.6164 424.039 80.4241C416.77 69.1199 403.963 74.7184 393.904 77.8147L392.441 79.509ZM399.601 103.997C400.713 104.724 401.037 104.108 401.868 103.859C404.846 102.965 417.14 96.4501 419.869 94.5136C422.145 92.8999 428.77 86.8204 426.558 83.8349C423.624 79.873 403.425 85.7924 398.996 87.839C399.711 93.1753 401.431 98.6164 399.6 103.997L399.601 103.997ZM239.925 60.386C240.252 61.179 245.803 58.9811 246.714 58.6071C252.499 56.2305 267.134 49.5693 269.116 43.6838C269.528 42.4593 269.855 35.5815 268.898 35.1979L242.269 46.0839L239.924 60.3867L239.925 60.386ZM230.008 27.9427L222.228 21.1339C216.541 22.8685 209.626 22.3009 204.127 23.7852C203.184 24.0396 202.723 23.2318 202.509 25.2444C206.364 25.3476 209.143 31.9792 211.883 32.5756C213.725 32.9772 225.862 30.1467 228.391 29.382C229.245 29.1234 229.838 29.9967 230.01 27.9421L230.008 27.9427ZM359.98 89.417L369.922 97.8646L395.289 87.095C394.191 84.7687 392.285 80.913 389.928 79.7501C387.662 78.6323 373.24 83.4652 369.952 84.6939C368.834 85.1115 359.751 88.7784 359.982 89.4163L359.98 89.417ZM230.614 30.1509L211.82 34.9059L217.846 53.2397L239.39 45.5343C238.648 39.4829 235.078 34.0911 230.614 30.1509ZM397.233 89.1072C395.929 87.4005 374.098 97.0535 371.19 99.0047C370.491 99.8539 370.529 100.682 370.646 101.704C371.277 107.2 376.573 114.741 373.617 121.317L396.969 106.078C400.171 100.652 397.976 94.7582 397.233 89.1072ZM171.193 42.6074L184.716 50.1294C187.687 47.8712 208.586 35.4544 208.359 33.3307C203.333 24.8004 199.353 24.705 191.492 29.2524C184.732 33.1635 178.351 39.0591 171.193 42.6064L171.193 42.6074ZM210.597 35.8485C209.461 35.1434 209.251 35.6336 208.382 36.0714C201.469 39.557 193.211 47.5093 186.033 51.4199L195.568 67.3193L215.241 54.5872L210.597 35.8485ZM217.857 68.3312C221.616 65.4459 234.943 64.14 237.378 61.3244C239.794 58.5309 240.369 51.1429 239.072 47.736C238.278 47.2693 235.241 48.125 234.121 48.4C232.518 48.7934 219.728 53.9897 219.16 54.5658C216.775 56.9805 220.042 64.7988 217.857 68.3312ZM332.908 104.607L342.589 113.86C346.232 112.689 367.546 101.237 367.194 98.8275C365.346 95.7821 360.771 90.219 356.935 90.6693L332.908 104.607ZM345.594 92.763C337.266 89.1507 335.022 94.9779 332.887 101.951C335.323 101.771 346.775 94.9626 345.594 92.763ZM368.214 100.969C365.339 105.229 344.919 113.648 343.575 115.782C342.384 117.674 348.455 131.698 348.272 135.288L366.834 125.752C376.406 120.472 372.172 108.617 368.214 100.969ZM335.183 92.0591C326.917 91.4135 320.698 99.6524 318.793 107.146L329.504 103.865L335.184 92.0594L335.183 92.0591ZM197.987 83.1878L215.482 69.59C217.51 68.1643 216.982 56.5431 215.998 56.224L196.659 69.0242L197.987 83.1878ZM132.645 57.6441L145.088 61.6643C146.666 62.1743 149.958 66.3496 152.032 66.1612L181.53 51.7176C181.914 50.5576 169.983 42.6818 167.572 44.0553L132.645 57.6441ZM154.088 68.1128C159.492 69.675 168.286 81.3459 173.187 81.2491L193.617 69.0441C192.455 66.1843 185.872 53.2195 183.499 52.9349C175.305 57.4074 166.513 60.8544 158.178 64.9847C157.284 65.4274 153.563 67.0089 154.089 68.1131L154.088 68.1128ZM308.818 111.23C305.197 112.58 311.337 123.46 313.524 123.667C317.996 124.09 332.055 116.237 337.67 115.899L339.524 114.303C337.486 111.985 333.649 105.87 330.518 105.744C329.283 105.694 323.06 108.898 320.983 109.476C317.078 110.562 312.908 111.375 308.818 111.23ZM317.846 148.512C319.747 151.178 343.031 140.699 345.15 136.98C347.637 132.616 343.257 121.244 340.423 117.174L313.927 125.944L313.493 127.561C316.126 134.171 317.569 141.417 317.845 148.512L317.846 148.512ZM173.972 83.3973C177.653 85.1877 186.153 94.0041 190.2 92.2074C193.779 90.6178 196.49 84.0985 196.466 80.2737C196.457 78.8994 194.908 69.398 192.43 71.6903L173.972 83.3973ZM305.623 111.841C300.45 112.372 275.646 110.137 273.027 112.761C271.714 114.077 274.782 128.937 279.623 126.869L310.788 123.625L305.624 111.841L305.623 111.841ZM148.46 66.305C141.452 62.6786 134.76 58.5827 126.457 59.3021C118.529 64.5506 109.629 68.609 101.73 73.8354C100.716 74.5054 93.9371 79.0492 94.4381 79.87L118.355 85.3748C126.673 80.6461 134.114 74.2901 142.472 69.6479C144.487 68.5282 147.739 68.8694 148.46 66.304L148.46 66.305ZM148.969 102.659C155.534 95.8277 161.729 88.7832 169.561 83.329C169.668 82.0583 152.857 68.9897 150.113 68.7873C145.927 68.4785 129.606 79.5709 125.636 82.5831C124.788 83.2256 119.954 86.6829 120.385 87.3686C130.851 90.6598 139.4 97.6633 148.969 102.659ZM271.614 113.182L237.264 115.462C235.364 116.891 240.211 128.264 240.132 131.004L274.158 127.289C274.238 122.353 270.421 117.918 271.614 113.182ZM280.523 151.525L316.882 148.652C315.813 143.814 315.351 138.832 314.009 134.05C313.279 131.445 312.676 126.162 309.914 125.691L277.36 128.352L280.523 151.525ZM186.34 94.5071L171.748 84.8783C163.269 89.0106 156.777 95.9634 151.483 103.623C163.647 103.866 176.923 103.117 186.34 94.5071ZM337.95 160.323L343.779 140.937L333.428 147.791C333.223 148.319 335.949 157.374 336.444 158.718C336.744 159.535 335.945 160.191 337.95 160.322L337.95 160.323ZM235.327 112.997C228.749 106.593 219.328 106.231 210.844 105.074L211.281 107.867C208.876 107.33 209.437 104.285 207.074 102.991C202.349 100.403 193.669 99.0293 188.495 96.0861C187.005 96.807 190.629 108.869 193.38 109.727C206.841 109.886 219.871 113.952 233.342 113.653C234.202 113.634 235.216 114.15 235.328 112.998L235.327 112.997ZM173.469 130.9L190.818 113.055L185.703 97.8544C175.429 104.05 163.762 106.665 151.761 105.499L170.583 130.416C171.28 131.199 172.602 131.364 173.47 130.901L173.469 130.9ZM235.265 115.687L215.632 113.759L212.855 127.517C213.494 128.401 214.505 128.321 215.426 128.52C217.657 129.003 236.427 131.216 237.517 131.001C239.04 130.701 238.241 130.105 238.216 129.286C238.077 124.713 234.676 120.418 235.265 115.686L235.265 115.687ZM243.25 159.872L278.02 152.5C281.132 149.922 276.264 133.845 275.119 129.799C273.337 128.055 269.243 129.042 266.74 129.184C258.214 129.665 249.858 131.9 241.385 132.685L243.251 159.872L243.25 159.872ZM301.078 153.742L309.462 161.701C315.275 158.672 322.229 156.079 327.237 151.824C327.886 151.272 329.619 150.31 328.652 149.35L270.037 156.557C272.034 159.499 274.541 170.965 276.288 172.819C277.133 173.717 277.585 173.604 278.67 173.541C280.117 173.457 289.374 170.355 291.442 169.608C296.846 167.656 302.078 165.009 307.148 162.315L301.078 153.742ZM330.662 149.993C326.269 156.942 317.105 159.203 310.455 163.54L314.547 182.006C327.42 175.277 340.767 167.899 332.329 151.481C331.882 150.61 332.003 150.102 330.662 149.993ZM213.734 113.984L200.121 111.605L193.855 112.43C195.445 115.011 208.638 128.043 210.385 127.088L213.734 113.984ZM115.3 86.6209C108.271 86.2298 98.2104 80.5413 91.3853 82.4294C88.6107 83.1976 74.4773 94.7308 71.5623 97.381C70.8065 98.0679 67.5417 100.744 67.9594 101.458L90.8273 107.533L115.3 86.6209ZM116.763 88.1718L93.5352 107.452L120.32 127.103C130.109 121.102 138.086 112.773 146.541 105.126C147.188 102.523 121.292 87.7635 116.763 88.1718ZM173.634 133.824L198.591 156.835C202.024 157.597 207.601 133.5 210.159 130.239C210.127 128.829 203.783 125.202 202.027 123.663C200.256 122.112 192.818 113.414 191.599 113.928L173.634 133.824ZM202.138 158.115L239.798 160.352C240.895 160.43 241.396 159.939 241.798 158.965C242.798 156.546 240.535 133.86 239.009 132.946C233.948 133.033 216.012 128.845 212.433 130.432C212.087 130.585 210.618 131.871 210.568 132.025L202.138 158.115ZM148.307 107.141L122.047 129.015L144.795 152.764C146.206 152.938 165.861 137.622 167.56 135.723C168.508 134.664 169.63 133.917 169.627 132.242C169.625 130.72 152.675 111.625 150.812 108.299L148.307 107.141ZM277.983 195.036C278.853 195.506 279.567 195.435 280.497 195.368C281.96 195.263 295.084 192.277 296.723 191.72C297.903 191.318 310.807 184.247 311.375 183.632C314.2 180.571 309.97 168.686 308.396 165.016L305.822 164.972C301.846 168.937 280.631 173.265 278.428 175.699C276.279 178.073 280.989 191.045 277.983 195.036ZM274.596 175.304L268.244 157.412C263.859 156.843 244.098 160.879 242.687 164.509L241.087 185.769L274.596 175.304ZM146.235 155.883L164.512 179.61L197.456 158.81C191.206 152.768 185.239 146.077 178.855 140.208C177.224 138.709 173.977 135.262 172.041 135.206C170.557 135.163 150.101 150.744 148.152 152.782C147.386 153.583 145.966 154.664 146.234 155.883L146.235 155.883ZM88.5609 109.011L65.9343 102.765C58.226 109.173 53.233 118.059 46.8374 125.66C53.7557 124.967 59.2997 128.657 65.9527 129.64L88.5609 109.011ZM67.9673 131.604L91.5895 147.106L117.692 128.633C117.909 126.266 95.5064 111.128 91.4867 110.039C83.232 116.693 74.0998 122.769 67.9673 131.604ZM239.183 185.957C239.714 182.651 242.043 163.914 240.064 162.457L202.418 159.987L205.139 192.773L239.184 185.956L239.183 185.957ZM301.042 208.682L312.837 185.903C308.143 188.064 299.467 190.804 299.165 196.581L301.042 208.682ZM274.642 196.345C278.208 193.866 277.12 180.024 274.734 176.267L241.723 187.772L241.541 206.31L274.643 196.345L274.642 196.345ZM143.132 154.138C135.227 146.369 128.932 136.659 119.37 130.664C118.118 130.511 112.14 134.675 110.603 135.708C106.861 138.222 97.8507 144.322 95.0035 147.12C94.1902 147.92 93.3542 148.618 93.0494 149.789L113.696 171.977L143.132 154.138ZM198.162 161.365C196.021 161.232 170.455 179.111 165.712 180.675C164.999 181.506 165.149 182.381 165.179 183.365C165.314 187.7 170.727 197.927 171.336 203.077L203.73 193.687L200.651 163.904C200.38 162.538 199.704 161.461 198.162 161.365ZM297.451 195.121C296.574 193.306 275.259 198.535 272.7 200.407L278.673 207.606C281.448 205.959 299.282 198.912 297.451 195.121ZM284.2 224.214C287.754 221.386 295.869 217.441 297.765 213.307C299.7 209.088 297.807 203.312 298.014 198.851L278.825 210.265L274.553 227.609L284.201 224.215L284.2 224.214ZM64.4947 131.375L52.8542 127.614C52.4194 127.473 48.0824 127.398 47.5097 127.645C46.4719 128.092 38.3506 136.734 36.311 138.5C33.59 140.855 30.7163 143.14 27.4158 144.661C26.696 146.743 37.5521 148.641 39.1615 150.461C41.4737 149.589 65.4269 132.666 64.4947 131.375ZM113.196 175.467C116.845 178.511 120.343 183.462 123.008 187.542C124.442 189.736 126.492 196.271 128.86 196.405L162.096 180.319C162.476 177.593 147.817 159.347 144.424 157.152C141.768 156.545 126.117 167.59 122.615 169.669C121.076 170.583 112.696 174.012 113.196 175.467ZM239.067 208.041C240.972 206.452 239.81 188.305 238.256 187.673L206.2 195.31C207.53 198.311 207.883 210.315 210.231 211.314C214.717 213.221 233.184 207.548 239.067 208.041ZM89.1417 148.252L66.3541 132.974L42.2188 151.235L60.1049 165.215C65.7329 162.735 71.5121 160.601 76.8838 157.555C78.6813 156.535 87.0463 151.439 88.0189 150.5C88.6756 149.867 89.0901 149.176 89.1426 148.252L89.1417 148.252ZM252.345 219.546L254.076 219.691C257.09 216.975 275.655 210.524 276.401 208.262C277.177 205.904 271.842 200.332 268.961 200.256C267.844 200.226 248.744 206.825 247.807 207.435C246.776 208.106 246.75 208.098 247.389 209.135C249.337 212.29 252.465 215.583 252.345 219.546ZM110.631 172.093L90.7582 150.641L60.5728 168.216C63.0509 169.689 65.0461 172.492 66.7008 174.805C68.4831 177.297 73.1126 186.436 73.9685 187.215C74.4826 187.683 74.9266 188.081 75.6731 188.067C76.8631 188.271 95.8611 181.171 98.4352 180.031C100.69 179.032 111.127 174.342 110.633 172.093L110.631 172.093ZM249.29 237.182C254.346 233.832 269.04 232.059 272.255 227.718C275.013 223.994 276.725 215.388 276.927 210.656L252.973 222.902C252.51 224.043 253.148 225.24 253.051 225.543L249.29 237.183L249.29 237.182ZM207.861 212.139L203.63 196.05L171.993 205.28L170.542 231.244L195.481 230.893L207.455 213.026C208.78 213.487 209.36 213.069 208.566 214.532C205.575 220.04 200.556 224.49 199.079 230.709C207.838 231.641 216.928 233.046 225.603 230.832L238.367 210.609C233.348 210.074 210.562 215.398 207.861 212.139ZM229.748 229.096C232.978 227.59 248.589 222.872 249.99 220.815C252.527 217.093 246.371 208.737 243.331 209.073C238.565 209.599 231.602 224.683 229.748 229.096ZM161.817 183.306L129.859 198.336L132.949 219.968C138.404 216.738 165.681 208.925 168.233 205.032C169.831 202.597 167.449 194.98 166.537 192.074C165.819 189.785 164.373 183.447 161.817 183.305L161.817 183.306ZM36.9285 150.838L24.4859 146.818C23.5733 146.523 9.34561 153.642 6.67947 153.925C10.4851 156.044 11.8546 160.75 16.6394 160.314C19.2272 160.078 26.3885 157.068 29.1142 155.866C30.3372 155.327 37.8442 152.46 36.9285 150.838ZM57.0663 165.334L39.602 152.721L16.2344 162.758L28.6312 177.316C35.8931 174.482 44.3664 172.563 51.3793 169.261C52.5405 168.715 57.4786 166.591 57.0663 165.334ZM111.003 175.79L76.6468 189.919L86.3759 211.026C88.052 212.093 93.2539 210.073 95.399 209.461C105.909 206.46 116.128 201.796 126.323 197.897C122.506 189.739 117.934 181.788 111.003 175.79ZM229.894 231.359L223.28 251.829C227.491 249.35 231.044 245.718 235.332 243.298C237.671 241.98 245.636 239.453 246.071 239.073C248.171 237.236 250.916 227.595 250.766 224.686C250.717 223.72 251.591 223.456 249.836 223.18L229.894 231.359ZM58.453 168.545L29.6114 179.219C28.9334 180.108 29.2898 180.826 29.5531 181.741C31.1997 187.486 37.8414 195.11 39.853 201.338C41.1954 202.195 44.625 200.548 46.306 199.945C55.0656 196.798 63.6585 192.587 72.3446 189.197C73.4079 187.145 61.1197 169.009 58.453 168.545ZM170.304 207.233L134.254 221.33C133.169 222.544 133.181 238.481 133.952 238.919L168.306 231.404L170.304 207.233ZM-24.0875 158.598C-19.5506 159.124 -16.665 168.037 -12.8304 168.301C-6.11767 165.96 2.54459 165.011 9.01433 162.418C9.88488 162.069 11.4355 162.184 11.5355 160.821L3.61117 154.424L-24.0875 158.598ZM-12.5215 169.452C-13.2176 170.582 -12.7492 170.794 -12.3002 171.669C-11.2871 173.64 -3.88007 187.267 -2.98455 187.465C0.833032 186.428 25.2205 180.56 25.5099 177.83L14.0288 162.917L-12.5215 169.452ZM89.1935 233.328L130.066 220.82C130.944 220.17 130.799 219.345 130.863 218.42C130.985 216.685 127.966 199.982 127.139 199.484L88.0257 213.456C85.6556 215.418 89.8112 229.683 89.1928 233.327L89.1935 233.328ZM227.64 232.847L198.414 233.544L194.485 253.162C195.072 254.393 218.84 253.511 221.545 251.712L227.64 232.847ZM-56.366 159.714C-53.5688 162.974 -49.5796 173.154 -45.5013 173.871L-15.8782 168.796C-18.8477 164.651 -22.4288 160.821 -27.106 158.566L-56.366 159.714ZM41.4864 202.983C40.5373 203.836 41.0681 205.497 41.2226 206.606C41.4681 208.364 45.0425 221.185 45.7131 222.407C46.1052 223.123 46.2221 223.961 47.2419 224.09C57.2402 221.696 67.4264 219.068 77.0998 215.605C78.5854 215.073 84.2404 213.228 84.4303 212.009C83.836 208.687 75.5958 191.374 73.2722 191.052L41.4864 202.983ZM170.428 234.309L164.073 253.977L192.223 253.336C194.454 251.336 197.505 234.161 195.918 233.187C192.34 231.668 172.146 231.754 170.427 234.309L170.428 234.309ZM37.6834 203.376C38.3987 202.271 37.798 201.948 37.5433 201.113C37.0124 199.377 35.1346 195.343 34.2689 193.407C33.2769 191.186 28.4497 181.192 26.8429 180.678L-2.03485 189.317L5.30258 211.561L37.6822 203.377L37.6834 203.376ZM-14.0168 170.88L-46.3512 175.363L-46.2098 177.625C-43.3064 180.884 -40.4373 194.857 -37.5466 196.696C-36.389 197.433 -35.5057 196.956 -34.3693 196.808C-31.5872 196.446 -6.82816 189.106 -6.08867 187.819L-14.0168 170.88ZM88.8164 250.94L131.036 239.753L131.756 222.258L89.8311 235.281L88.8154 250.94L88.8164 250.94ZM168.692 234.192C163.993 233.525 134.934 240.039 133.512 242.056L129.427 256.967L162.338 253.859L168.692 234.192ZM218.767 254.808L193.822 255.152L186.321 264.707C187.124 266.277 218.35 262.424 218.767 254.808ZM47.954 245.714L86.6761 234.27C88.6237 232.548 85.813 216.33 85.1832 215.566C84.3248 214.525 83.3237 215.077 82.3035 215.287L47.5799 226.098C45.506 228.093 49.0534 242.002 47.954 245.714ZM2.5332 213.233C3.87099 212.215 -3.208 192.681 -4.49944 189.919L-36.2295 198.685C-37.6192 201.676 -32.6906 221.048 -31.504 221.699L2.53256 213.232L2.5332 213.233ZM8.97791 234.832L12.6884 235.077C17.4641 231.667 40.7161 228.32 43.3824 225.624C44.4668 224.528 44.4219 223.847 44.3687 222.434C44.3042 220.722 39.4099 205.1 38.484 204.622L6.3791 213.687L8.97758 234.83L8.97791 234.832ZM159.386 265.758C165.44 264.854 176.759 266.6 182.117 265.018C185.57 263.999 189.183 258.587 191.026 255.593C185.538 256.668 169.331 254.213 165.045 256.531C163.538 257.346 158.942 264.742 159.386 265.757L159.386 265.758ZM86.2714 264.298L126.661 257.474C129.896 255.104 129.218 245.465 131.67 241.735L89.4679 252.934L86.2714 264.298ZM161.424 256.672L130.069 258.893C127.336 260.06 127.215 264.865 126.051 267.401L155.269 266.239C158.211 265.103 160.599 259.576 161.424 256.672ZM88.134 236.536L48.5998 247.706L44.9109 263.346L86.8935 251.672L87.6778 250.519L88.134 236.536ZM-38.4659 200.123C-39.5346 198.676 -72.4149 205.102 -73.7247 206.407C-75.8822 208.557 -70.602 226.995 -71.3978 231.055C-70.6164 231.593 -69.8115 231.496 -68.9277 231.424C-64.6724 231.079 -54.4665 228.146 -49.7867 226.916C-45.9809 225.916 -34.5233 223.917 -34.2768 219.82C-33.975 214.807 -38.9684 205.77 -38.4659 200.123ZM9.64035 257.274C15.4391 254.376 42.327 250.045 45.4423 246.655C47.9686 243.906 45.2384 230.919 44.7005 226.953L11.156 236.664C8.45775 239.08 12.2169 253.384 9.64035 257.274ZM4.25763 215.797C3.07875 214.469 0.199094 215.192 -1.38844 215.431C-10.7415 216.843 -21.3861 221.92 -30.9549 223.525C-33.6228 225.742 -28.8674 243.039 -29.6654 247.236L7.41245 236.467L4.25638 215.797L4.25763 215.797ZM126.769 259.66L87.5011 266.06C84.6328 266.745 84.5166 269.953 83.6777 272.325L121.37 268.084C124.784 266.688 125.858 262.837 126.769 259.659L126.769 259.66ZM40.7635 276.195C54.4456 270.983 68.8229 268.108 83.2182 265.545C86.1224 263.852 86.0589 256.909 86.9629 253.886L45.0226 265.54L40.7635 276.195ZM7.66174 274.362L42.1283 265.124C45.2212 260.17 45.0735 254.181 46.0946 248.662L11.8781 258.375C8.70931 260.659 9.65301 270.655 7.66174 274.362ZM-69.5837 258.272L-31.6999 247.766C-31.0346 246.797 -33.3279 225.047 -34.3437 224.454L-71.1437 233.017L-69.5837 258.272ZM8.65168 238.336L-28.9726 249.177L-29.7305 269.376L7.10404 258.225C10.4255 255.348 7.55348 242.695 8.65168 238.336ZM80.6053 272.89C81.972 272.16 83.6834 268.483 83.2251 266.87C69.4764 270.252 55.1864 271.754 42.1042 277.507L80.6053 272.89ZM5.09306 285.057L36.1168 278.259C40.3594 276.268 40.3905 270.662 41.9946 266.842L9.10078 276.534C6.24247 278.198 6.33269 282.213 5.09306 285.057ZM8.59317 260.479L5.49117 260.309L-28.5601 271.023C-31.6116 273.445 -30.5525 283.226 -32.773 287.009L5.94111 275.635L8.59317 260.479ZM-70.7121 280.961L-32.2393 270.33C-30.4347 268.804 -30.6441 249.572 -31.6658 249.264L-68.941 260.273L-70.7121 280.961ZM5.55173 278.121C4.99695 276.983 -2.05172 279.039 -3.49021 279.426C-12.9359 281.967 -22.5105 286.451 -31.8608 289.458L-36.1176 300.115L1.20916 287.301C4.13681 285.373 4.33202 281.171 5.55173 278.121ZM-31.5858 272.328L-69.7865 283.424C-73.2791 286.567 -72.0174 297.328 -74.7891 301.802L-34.447 288.232L-31.5858 272.328ZM-34.8837 290.767C-35.2788 289.824 -46.0691 293.846 -47.4622 294.326C-53.0242 296.244 -69.5685 301.194 -73.3275 304.017C-77.5375 307.179 -77.8195 311.597 -79.4577 316.251L-40.7402 302.225C-36.828 299.722 -36.3218 294.756 -34.8834 290.766L-34.8837 290.767Z" fill="url(#paint0_linear_126_90)"/>
<defs>
<linearGradient id="paint0_linear_126_90" x1="139" y1="174.282" x2="-159.5" y2="250.782" gradientUnits="userSpaceOnUse">
<stop stop-color="#383838"/>
<stop offset="1" stop-color="#383838" stop-opacity="0"/>
</linearGradient>
</defs>
</svg>
