<svg width="427" height="266" viewBox="0 0 427 266" fill="none" xmlns="http://www.w3.org/2000/svg">
<path d="M486.398 29.0914L484.223 34.5812L482.678 23.2258L468.816 18.5047C469.592 23.1085 470.07 27.7594 470.431 32.4222C471.132 41.477 467.376 44.1398 479.252 47.1302L478.319 49.4833C467.327 41.6259 470.149 48.5644 467.366 56.4959C465.214 62.6283 462.407 67.6622 458.966 73.1118L468.065 75.3659L467.444 76.9343L457.18 75.7507C452.688 84.0269 445.524 90.1187 439.461 97.1412C438.967 98.3607 456.852 99.9343 458.432 99.6793L456.879 103.601C449.85 111.071 440.974 114.968 432.806 120.824C437.955 122.297 443.304 123.142 448.178 125.562L447.246 127.915C424.885 119.622 395.824 118.929 375.974 133.684C363.565 142.908 359.814 159.822 348.321 170.431C329.421 187.876 313.075 187.218 291.16 194.55C257.551 205.796 231.921 238.129 199.404 248.384C180.674 254.291 164.153 247.437 167.143 225.64L155.593 223.767C153.653 236.088 156.971 254.953 144.605 262.936C139.887 265.982 130.674 266.757 127.676 261.241C125.606 257.432 125.862 232.081 126.089 226.187C126.516 215.11 129.431 203.191 129.6 192.822C129.619 191.683 130.041 190.332 128.816 189.594C125.22 195.797 120.461 201.244 116.64 207.291C108.284 220.51 91.7195 257.688 76.2482 261.17C65.0967 263.68 54.9574 254.005 59.6741 242.507C69.691 218.09 86.4834 188.281 99.6477 164.995C105.456 154.723 112.917 145.848 121.265 137.602C96.1008 145.121 71.8708 156.291 47.8856 167.034C38.7138 171.141 30.9143 177.275 20.2028 178.164C6.20342 179.326 -6.2435 167.461 3.42897 154.404C6.14368 150.739 22.1659 143.844 27.4258 140.765C50.9748 126.978 74.9803 112.79 98.1446 98.4017C106.384 93.2847 113.35 87.1925 121.042 82.218C134.611 73.4439 161.924 70.5637 178.376 64.5075C192.86 59.1756 206.346 49.8472 221.137 44.6629C256.478 32.275 296.376 37.7992 333.001 31.3134C345.749 29.056 361.852 24.2138 374.476 20.5158C403.326 12.0651 438.751 -6.26662 468.578 2.16554C480.749 5.60617 485.861 17.5781 486.398 29.0914ZM481.512 20.7986C481.779 15.2744 475.54 7.59448 470.731 5.64638C468.55 4.76259 465.238 5.1263 462.974 3.48199C461.741 5.1146 462.919 4.98966 463.265 5.66762C465.083 9.23722 466.641 12.8684 468.483 16.4207L481.512 20.7986ZM465.21 16.1467C466.772 15.0696 463.322 8.71508 462.311 7.33758C457.899 1.33034 453.77 2.09302 447.303 2.55868C445.954 2.65578 431.624 4.66146 432.123 5.76285L441.643 14.9298L465.21 16.1467ZM468.275 42.7772C469.723 42.0601 468.833 20.5134 466.338 18.5547C462.586 15.6096 448.331 17.4589 443.274 16.5558L446.57 40.4734L468.276 42.7763L468.275 42.7772ZM439.343 15.0029C435.945 11.7149 433.374 6.83598 428.087 6.20642L401.303 14.8871C401.04 15.4984 410.842 23.3745 411.504 23.4411C413.676 23.6582 433.729 17.5467 437.654 16.3923C438.486 16.1474 439.091 16.982 439.342 15.0035L439.343 15.0029ZM441.779 17.8223L412.905 24.4908C415.099 31.7366 419.752 38.3697 419.734 46.2308L445.205 41.261L441.779 17.8223ZM409.457 24.0274L398.004 16.2166L369.054 25.2398C372.206 26.154 376.328 32.2101 379.049 32.6684C380.99 32.9953 392.847 29.6849 395.645 28.8853C396.952 28.5117 409.664 24.7299 409.457 24.0274ZM456.875 73.5336C462.49 64.7834 466.57 55.8471 468.569 45.574C468.313 44.4133 467.558 44.4131 466.642 44.133C464.537 43.4872 449.937 42.0773 448.367 42.5922C446.809 43.1034 446.156 45.6199 445.676 47.0153C442.99 54.8271 441.767 64.036 438.608 71.8583L456.875 73.5336ZM417.124 47.762C420.197 45.3406 413.666 29.1001 410.817 26.386C408.827 25.5351 400.733 29.0729 397.998 29.8176C393.275 31.1035 385.598 32.1471 381.538 33.8366C380.482 34.2764 379.648 34.2871 379.434 35.6973C383.467 37.6273 387.033 53.1771 388.95 53.9882C392.485 55.4846 412.166 48.0789 417.124 47.762ZM444.933 44.4187C444.248 42.7417 423.638 47.1396 420.848 48.1971C419.403 56.3762 420.589 65.3401 417.148 73.3421L435.522 72.2425C440.859 64.2042 441.921 53.5677 444.934 44.4182L444.933 44.4187ZM376.117 32.5943C372.085 30.1731 369.521 26.3615 364.57 26.1503C360.013 25.9549 341.553 31.9662 335.234 33.4187C334.351 33.6218 333.839 32.7186 333.521 34.7558L343.39 41.9398C352.651 39.3759 364.031 38.3 372.904 34.9129C374.205 34.4163 375.772 34.2357 376.117 32.5943ZM417.311 48.9116L388.416 56.955L390.468 80.0099L415.025 73.6877C417.176 71.0203 419.191 54.6978 418.559 50.9572C418.405 50.0431 418.52 49.099 417.31 48.9125L417.311 48.9116ZM386.069 55.5671C386.818 55.0861 384.471 48.135 384.03 47.0416C383.314 45.2685 378.398 35.4418 377.374 35.1316L344.21 44.4301L357.046 61.2734L386.07 55.5674L386.069 55.5671ZM419.739 98.8596C420.152 99.591 434.895 98.5612 436.433 97.6518C438.841 96.2285 448.517 85.3678 450.717 82.5889C452.592 80.222 454.569 77.8785 455.524 74.9345L437.71 73.9216C431.42 82.0192 427.684 92.0752 419.739 98.8587L419.739 98.8596ZM435 74.0667L417.411 76.2119L403.299 101.425C404.047 103.089 417.015 99.5714 418.995 97.9078C421.616 95.7042 435.503 75.4146 435 74.0667ZM366.629 86.7274C367.708 87.8647 368.917 87.6845 370.297 87.4806C373.082 87.0695 386.676 82.3679 387.96 80.1855C389.374 77.7825 387.794 57.2714 386.12 56.6135L357.72 62.9558L357.461 65.1819L366.63 86.7268L366.629 86.7274ZM339.803 41.8021C336.175 39.2997 334.109 36.1054 329.485 35.1899C325.881 34.476 303.571 36.4203 299.209 37.2844C298.244 37.4754 297.841 36.6466 297.502 38.639C302.492 39.2099 307.51 47.6389 311.092 48.4139C313.189 48.8682 333.454 44.1797 336.835 43.1807C337.485 42.9887 339.98 42.4112 339.804 41.8025L339.803 41.8021ZM341.996 44.6987C331.81 44.6858 321.899 48.2917 311.966 50.2715C316.68 54.7914 321.12 65.2361 325.367 69.2066C326.081 69.8734 326.546 70.4265 327.637 70.1124L353.492 62.0658C354.579 60.2851 344.4 46.5018 341.996 44.6987ZM383.592 109.955C387.953 108.116 398.091 104.95 401.14 101.705C406.939 95.5373 410.594 83.5337 415.109 76.1627L390.108 82.2757C388.5 91.6172 387.776 101.271 383.591 109.953L383.592 109.955ZM263.202 40.4708C269.306 40.754 274.741 50.0733 279.215 51.3582C280.644 51.7686 305.911 49.3493 306.445 48.0848C303.989 44.9974 296.681 38.6383 293.017 37.9386C289.505 37.2679 270.633 39.1586 265.772 39.6704C264.897 39.7624 263.746 39.3279 263.201 40.4714L263.202 40.4708ZM454.831 101.887C454.167 100.452 439.301 99.4022 437.453 100.011C435.807 100.553 425.893 109.82 423.107 111.923C419.814 114.408 416.247 116.602 412.755 118.779C417.456 118.648 422.509 119.888 427.148 119.764C431.842 119.639 442.467 113.271 446.446 110.285C447.807 109.264 455.354 103.014 454.832 101.888L454.831 101.887ZM354.306 64.0192L327.864 71.9965L342.513 95.3093C344.193 95.7886 362.73 90.7147 364.023 89.4768C364.588 88.9359 364.979 88.5357 365.207 87.7452C365.722 85.9606 356.198 64.4586 354.306 64.0192ZM324.555 71.1274C320.148 63.5827 315.182 56.2791 308.677 50.3387L280.941 52.9629L295.02 75.7519L324.555 71.1264L324.555 71.1274ZM433.524 100.709C433.152 100.06 422.095 100.419 420.85 100.709C419.28 101.073 418.534 102.512 418.064 102.619C417.583 102.729 416.658 101.455 415.363 101.44C414.367 101.429 402.282 104.111 401.693 104.488C399.796 105.702 395.037 114.252 392.816 117.024C390.431 120 387.819 122.573 384.889 124.98C386.225 125.907 387.08 124.898 388.254 124.509C399.672 120.724 408.464 112.081 415.528 102.648L416.552 104.256L400.538 119.852C399.376 121.269 408.296 119.105 409.166 118.762C417.822 115.342 426.52 106.72 433.523 100.71L433.524 100.709ZM369.191 118.763C372.922 114.485 380.446 113.626 383.051 108.263C384.072 106.162 388.949 83.9108 387.327 83.3241L367.769 90.6619L369.191 118.763L369.191 118.763ZM275.618 52.6481C264.048 34.5135 244.039 40.478 227.347 46.2283L242.051 55.5107C253.201 55.9699 264.584 51.6788 275.618 52.6481ZM339.68 97.0823C340.548 95.6524 339.532 94.4467 338.929 93.1932C337.779 90.8104 327.094 73.3542 326.019 72.8068L296.549 77.7377C299.644 81.9745 302.376 86.5862 305.641 90.6913C307.124 92.5558 312.877 99.9658 314.298 100.639C318.237 102.505 334.174 95.753 339.68 97.0823ZM292.458 76.5601C293.496 75.9095 281.133 56.9122 279.808 55.7185C276.314 52.5702 266.772 54.4914 261.984 54.9502C255.897 55.5333 249.73 56.7343 243.69 57.7034L257.745 78.2297L292.458 76.5601ZM366.436 91.3632L342.199 97.6384L351.145 128.843L366.54 120.014C368.427 110.47 366.401 100.915 366.436 91.3632ZM398.764 105.993L391.002 108.32C388.886 109.858 384.848 111.138 383.209 112.955C381.313 115.056 382.09 116.638 381.146 118.467C379.014 122.599 376.259 126.522 374.419 130.818L386.825 121.205L398.763 105.994L398.764 105.993ZM239.123 55.4457C234.369 53.5567 228.692 47.0751 223.547 47.2363C221.805 47.2916 201.201 56.1568 198.788 57.6026C197.874 58.1504 196.872 57.9935 196.688 59.4939L208.282 66.1654C217.619 62.1925 227.971 60.1207 237.414 56.8435C238.165 56.5827 238.879 57.4604 239.123 55.4457ZM240.518 57.998C229.993 60.3267 219.558 63.3734 209.727 67.8393C210.052 68.7879 210.452 69.6928 211.055 70.5041C212.657 72.6574 218.983 80.3118 220.715 81.9187C221.865 82.9852 222.913 83.8178 224.512 84.1165L254.804 78.92C256.226 78.2891 255.462 77.7125 255.113 76.7964C254.1 74.1438 242.595 58.609 240.52 57.9974L240.518 57.998ZM292.613 78.4513C291.972 76.8127 261.262 79.8293 257.564 80.9016C256.879 81.509 255.748 92.6519 255.099 95.0001C253.457 100.94 250.843 105.394 248.282 110.411C244.876 117.082 240.608 123.223 238.436 130.478L249.911 127.722C254.343 120.792 258.918 114.324 265.142 108.839C261.175 105.642 255.584 108.534 251.358 107.022C255.842 103.872 264.512 107.484 268.206 105.403C271.375 103.618 286.721 88.2004 289.216 84.8541C290.762 82.7796 291.941 81.0148 292.614 78.4494L292.613 78.4513ZM269.38 107.354C273.121 108.1 279.574 109.245 282.901 110.878C290.391 114.554 287.105 116.887 296.477 112.163C301.894 109.433 306.925 105.041 312.267 102.111L295.353 79.5538L269.381 107.353L269.38 107.354ZM341.55 98.8752C340.876 98.0187 339.523 98.2401 338.563 98.2681C332.763 98.438 323.26 101.325 316.959 102.42C316.202 102.551 315.728 101.636 315.427 103.352C321.307 112.845 325.399 123.167 329.291 133.592L348.793 129.298L341.549 98.8739L341.55 98.8752ZM380.929 114.349C379.539 113.328 379.155 114.398 378.204 114.795C376.871 115.354 369.559 119.61 369.028 120.392L365.13 141.654C371.425 133.177 376.115 123.733 380.93 114.348L380.929 114.349ZM347.887 161.142C350.737 161.362 352.224 160.067 354.042 158.11C363.534 147.901 363.98 135.204 366.855 122.379L350.831 131.13C351.148 141.198 350.376 151.337 347.887 161.141L347.887 161.142ZM220.204 112.367C220.665 113.471 232.364 111.422 234.254 111.056C237.329 110.462 246.145 108.792 248.022 106.825C252.674 101.95 255.578 87.5839 254.934 80.7559L224.201 86.4166C224.118 95.4438 224.662 104.034 220.203 112.367L220.204 112.367ZM326.643 134.56C329.226 132.899 315.714 107.096 313.716 104.077L291.192 116.45L304.81 135.94L326.643 134.56ZM205.63 66.682C202.248 64.5806 197.397 60.1009 193.175 60.7773C192.462 60.8917 187.477 63.9559 185.584 64.6398C178.583 67.1702 171.09 68.8426 164.456 72.1273L174.798 75.765L205.631 66.6814L205.63 66.682ZM174.813 78.0463C180.59 80.0972 185.664 91.5868 191.101 92.5212L221.033 85.0239L207.181 68.5119L175.96 76.6182L174.813 78.0463ZM349.495 131.837L329.834 135.572C327.508 145.076 330.237 155.203 327.408 164.795C328.371 166.616 340.945 164.68 342.815 163.71C349.986 159.992 348.81 139.185 349.495 131.837ZM222.539 87.9535C220.761 85.1767 194.908 94.5466 190.273 94.2928C189.622 101.211 189.935 108.141 187.468 114.833C191.783 115.125 216.66 114.593 218.748 112.695C222.231 104.884 223.063 96.3854 222.539 87.9535ZM285.924 114.816C281.768 112.412 274.266 110.197 269.453 108.291C269.101 108.151 267.395 108.504 266.916 108.828C265.73 109.628 257.207 119.505 256.157 121.125C255.275 122.485 252.177 127.038 254.47 127.776C256.311 128.367 264.265 130.6 265.333 130.323C266.566 130.003 272.219 125.118 274.245 123.878C278.463 121.297 282.994 118.988 287.416 116.764C287.608 116.585 286.123 114.93 285.924 114.816ZM266.947 131.79L275.613 140.471L302.349 136.297C300.444 133.009 291.695 118.009 288.536 117.742C285.966 119.248 266.07 129.582 266.946 131.79L266.947 131.79ZM312.033 166.902C315.075 166.702 323.827 167.923 325.375 165.358C327.307 162.158 328.556 137.882 326.312 136.331C321.054 137.057 312.519 136.762 307.681 138.068C306.732 138.324 306.063 138.28 305.624 139.399C304.985 141.028 313.588 162.67 312.033 166.903L312.033 166.902ZM170.886 76.5084L160.664 73.1449L137.381 78.6404L146.07 84.2716L170.886 76.5084ZM147.906 86.4329L158.895 100.638L186.918 93.297C187.104 91.9777 175.129 79.3265 172.279 78.8396L149.044 85.01L147.907 86.4323L147.906 86.4329ZM210.1 135.591L235.539 132.064L246.811 109.303L220.445 115.194L210.1 135.591ZM303.46 138.097C295.514 139.547 285.809 139.776 278.098 141.799C277.248 142.022 276.315 141.884 276.125 143.086C275.932 144.307 284.138 157.87 285.08 158.026C288.866 155.962 304.351 141.604 303.46 138.097ZM188.487 96.1785L159.732 102.571C159.931 108.44 161.543 114.178 159.135 119.936L184.892 115.616C187.391 113.747 188.589 99.9619 188.487 96.1785ZM289.201 178.724L291.473 178.743L310.588 167.86C309.356 159.175 307.343 149.903 303.802 141.864C299.412 149.523 291.437 153.961 285.691 160.422C287.673 166.218 289.639 172.497 289.202 178.724L289.201 178.724ZM344.778 168.985C347.988 168.339 350.162 164.344 352.102 161.906C347.819 162.39 345.684 164.85 344.778 168.985ZM143.189 84.5868C134.026 77.1239 126.163 81.1122 118.319 87.8281C121.766 96.5857 128.453 90.3031 134.576 87.9617C136.754 87.1293 139.271 86.7905 141.473 85.9744C142.171 85.7164 142.961 86.6239 143.189 84.5868ZM262.066 132.61L253.46 129.181C252.094 129.729 254.817 140.963 254.312 143.118C256.234 144.154 255.553 143.609 256.34 142.611C257.29 141.406 262.294 133.14 262.066 132.61ZM124.435 95.283L134.528 107.494L155.76 100.905C156.267 99.6091 147.644 87.2415 145.804 86.9404C142.476 87.5807 139.044 88.282 135.835 89.3713C134.162 89.9391 124.136 93.9945 124.435 95.283ZM218.95 115.51L188.28 117.464L177.495 130.831C187.177 133.707 197.256 134.938 207.306 135.173L218.95 115.51ZM244.912 166.5L271.798 142.119C273.99 139.57 265.733 132.949 264.448 133.524C263.004 136.763 261.179 140.353 259.254 143.314C254.753 150.242 246.735 158.012 243.087 164.568C242.201 166.159 243.993 166.729 244.912 166.5ZM344.439 165.226L327.592 167.584C324.256 173.948 322.221 181.689 315.533 185.52C316.869 186.447 317.724 185.438 318.898 185.049C328.824 181.759 340.458 175.404 344.439 165.226ZM251.263 130.122C250.75 129.275 238.602 132.225 238.001 134.225C239.468 137.82 238.84 150.607 239.979 152.88C243.131 159.166 250.863 152.05 252.654 147.449C254.598 142.455 250.294 135.544 251.263 130.122ZM246.546 167.266C250.928 167.318 258.437 175.72 261.435 175.473C262.967 175.348 281.412 161.505 282.122 159.954C283.321 157.327 278.411 151.875 276.819 149.301C275.435 147.065 275.517 143.722 272.476 143.068L246.546 167.266ZM304.422 188.38C309.656 188.644 313.719 186.007 317.01 182.188C318.365 180.615 326.668 169.225 323.851 167.976L313.29 168.36C312.733 176.607 309.57 182.154 304.422 188.38ZM135.653 124.242C139.649 122.44 155.186 121.736 157.234 119.214C159.757 116.106 159.018 106.525 157.142 102.891L135.459 108.835L135.653 124.242ZM237.888 154.76C239.424 153.978 236.975 136.594 235.638 133.928C228.697 136.231 217.322 135.134 211.012 136.954C206.727 138.191 208.355 146.114 208.737 149.646L237.888 154.76ZM89.259 110.138C92.7747 109.091 100.043 104.322 103.842 102.554C108.26 100.496 116.132 98.1323 119.743 95.7367C122.762 93.7329 118.279 90.2367 116.022 89.363C98.8788 103.306 78.133 111.704 59.6646 123.633C59.8933 125.138 61.5181 124.146 62.3405 123.81C64.9363 122.751 67.4838 120.374 70.0591 119.116C73.2384 117.564 79.7082 115.694 82.0899 113.879C83.6981 112.655 84.9091 110.032 85.228 109.868C85.7591 109.595 87.7703 110.581 89.259 110.138ZM184.336 118.129C184.101 117.487 172.974 119.015 171.498 119.234C163.551 120.412 156.202 120.607 152.74 129.194L175.505 130.748L184.337 118.128L184.336 118.129ZM89.861 111.537C94.6185 113.036 99.4625 121.166 104.014 121.013C105.809 120.953 118.324 115.887 120.813 114.749C122.546 113.957 131.737 109.3 131.654 108.118C130.001 106.015 124.462 96.4113 122.117 96.6029L89.8601 111.537L89.861 111.537ZM311.247 171.132C310.848 169.954 306.537 172.154 305.69 172.542C303.904 173.362 291.057 180.42 290.52 181.106C288.493 183.694 289.773 190.327 286.265 192.982L297.18 190.433C304.715 186.135 308.717 179.283 311.248 171.13L311.247 171.132ZM265.885 193.982C269.033 190.52 285.568 184.592 287.343 181.111C288.471 178.899 286.057 163.414 284.228 162.303C283.228 161.696 282.222 162.51 281.408 162.99C274.992 166.78 268.423 173.65 261.725 177.507L264.472 192.863L265.885 193.981L265.885 193.982ZM201.525 150.342L188.583 145.214C187.675 144.855 178.901 138.843 182.216 137.251C182.861 136.941 191.426 144.31 193.926 145.497C198.129 147.495 202.212 147.733 206.377 149.537L206.322 136.897L175.57 133.325C172.867 147.649 187.278 155.488 199.821 151.746C200.663 151.494 201.241 152.339 201.525 150.342ZM103.578 138.764C104.455 140.683 114.081 135.971 115.951 135.065C121.558 132.349 126.948 128.29 132.75 125.798C134.93 123.748 135.954 109.395 130.095 111.442L103.712 123.412C101.996 124.952 106.638 135.526 103.578 138.764ZM167.456 224.859C168.261 219.585 169.499 215.916 173.29 212.043C193.319 191.582 220.925 183.716 240.488 163.041C241.347 162.134 245.486 157.582 245.246 156.775C243.743 156.614 242.153 157.608 240.67 157.451C229.205 156.232 216.165 152.868 204.732 150.682C201.898 154.309 198.037 153.722 193.932 154.575C187.472 167.455 177.913 178.521 173.106 192.203C170.235 200.373 167.551 213.483 166.994 222.151C166.935 223.078 166.253 224.598 167.457 224.859L167.456 224.859ZM155.217 122.93C154.57 121.751 139.243 124.55 137.24 125.75C134.886 127.16 135.2 128.473 135.629 131.084C135.961 131.657 148.205 130.161 148.808 129.888C151.101 128.851 152.975 124.491 155.217 122.93ZM172.795 133.52C172.278 132.504 164.466 132.336 162.84 132.277C158.523 132.118 147.143 131.808 143.47 132.573C141.726 132.936 132.442 138.614 132.276 139.634C134.351 142.436 142.467 152.453 145.434 152.199L172.793 133.52L172.795 133.52ZM178.604 148.56C173.967 145.933 174.765 140.275 172.663 136.187L145.621 154.058L153.173 165.631C157.3 163.582 161.361 161.383 165.276 158.953C167.386 157.644 178.964 150.044 178.603 148.56L178.604 148.56ZM288.101 183.736L265.636 195.768L264.61 205.262C274.144 199.16 285.152 196.291 288.101 183.736ZM221.851 183.802C226.405 182.943 232.914 191.038 236.249 190.881L258.149 176.852C258.705 175.086 246.87 168.056 244.199 168.617L221.851 183.802ZM120.64 134.621L132.931 132.249C134.818 130.815 135 127.116 131.804 128.137C128.769 129.106 123.821 133.178 120.64 134.621ZM242.15 208.172C243.278 208.938 243.921 208.433 244.955 207.935C250.109 205.456 256.148 198.603 262.087 196.376C264.127 193.457 260.771 182.346 259.646 178.82L237.582 192.473L242.15 208.172ZM100.224 122.015C96.5333 119.915 92.086 113.059 87.6671 113.152L60.3117 126.61C62.877 128.728 67.6574 137.241 70.631 137.082C71.2079 137.051 76.9805 135.005 78.0404 134.569C81.0505 133.335 85.7481 130.859 88.7456 129.266C90.3792 128.397 100.493 123.029 100.224 122.015ZM168.933 195.958C170.706 190.945 172.877 186.005 174.837 181.056C175.139 180.295 177.602 178.511 177.525 176.7L175.445 174.951C176.94 172.892 178.311 174.195 179.19 173.954C180.357 173.635 191.268 155.827 190.877 154.29L183.037 153.429L168.709 173.634C168.913 174.212 174.039 173.343 173.406 175.486C164.118 173.556 162.005 184.991 158.887 191.528C163.011 191.899 165.15 195.539 168.06 196.989C170.43 198.17 168.81 196.305 168.933 195.957L168.933 195.958ZM180.848 152.13C178.039 150.225 178.103 152.584 176.058 153.798C170.361 157.183 158.567 163.66 154.033 167.516C152.161 169.109 150.544 171.001 149.749 173.381C153.376 174.532 161.161 177.488 164.5 175.188C166.266 173.971 177.001 159.416 178.617 156.741C179.514 155.257 180.392 153.822 180.848 152.13ZM132.071 135.533C130.738 132.068 119.094 143.47 118.093 144.525C109.566 153.516 101.764 165.988 96.477 177.193C95.5236 179.214 93.3919 182.691 93.9416 184.844C99.4379 175.728 103.524 164.933 110.344 156.662C112.802 153.682 132.616 136.95 132.07 135.532L132.071 135.533ZM101.632 125.292C100.501 124.514 99.8543 125.096 98.815 125.499C94.8767 127.02 89.6133 130.629 85.6241 132.567C80.7944 134.913 75.6054 136.551 70.8481 139.075C71.7041 143.903 74.824 147.583 72.6099 152.807C74.3692 154.047 74.947 152.07 76.7965 151.262C82.4213 148.804 97.2943 144.72 100.707 140.382C104.354 135.746 102.019 130.38 101.633 125.293L101.632 125.292ZM142.239 153.242L130.349 141.265L113.204 155.738L126.222 168.602C127.167 164.809 142.864 155.746 142.239 153.243L142.239 153.242ZM263.242 198.386C261.537 197.216 261.842 198.222 261.096 198.72C256.759 201.618 244.229 208.958 242.835 213.33C242.275 215.087 242.898 217.328 242.337 219.135L260.239 207.222L263.242 198.386ZM201.367 196.551L213.57 204.604L233.454 193.391C231.875 189.389 223.271 184.995 219.509 185.162C218.232 185.219 206.984 192.189 204.925 193.521C204.118 194.043 201.035 195.683 201.367 196.551ZM150.958 165.049C150.448 163.58 144.837 155.366 143.105 155.725L126.902 169.269L134.594 178.257C137.541 175.892 150.278 170.001 151.107 167.317C151.303 166.684 151.183 165.699 150.958 165.049ZM234.545 194.341L214.942 206.025C218.254 211.672 220.753 217.271 221.905 223.748C222.931 224.485 223.481 223.538 224.251 223.178C226.379 222.185 240.191 212.261 240.725 210.783C241.153 207.841 237.344 194.726 234.544 194.34L234.545 194.341ZM31.218 142.754L42.2265 149.385L67.371 138.48L58.6281 128.633C55.598 130.108 51.1519 130.446 48.2517 131.815C44.8517 133.419 36.0548 138.848 32.7703 141.102C32.0776 141.578 31.3578 141.404 31.2157 142.754L31.218 142.754ZM43.1893 167.463C52.2247 159.302 80.5189 158.284 68.7509 140.454L43.987 150.523C43.4902 153.55 44.3751 156.453 44.0594 159.623C43.9629 160.586 41.5102 167.86 43.1893 167.463ZM108.759 194.357L123.366 170.743C123.811 168.394 113.963 159.157 111.63 157.377L96.0366 185.13L108.759 194.357ZM163.074 178.67L150.391 175.62C147.698 175.458 148.398 179.036 147.63 181.129C146.22 184.968 138.907 199.462 141.805 202.441C143.978 202.929 152.537 205.977 153.695 204.376C155.004 195.329 158.403 186.49 163.074 178.67ZM138.244 202.391C140.629 192.601 146.335 183.135 147.478 173.397C142.902 175.904 135.681 178.809 133.743 183.823C131.875 188.658 132.376 195.334 130.912 200.382L138.244 202.391ZM211.258 205.932C207.89 204.346 201.243 197.543 198.121 197.239C195.91 197.024 186.938 203.223 187.301 204.578L198.864 212.657L211.259 205.932L211.258 205.932ZM240.032 214.617C236.918 217.607 225.357 223.142 223.423 225.939C222.577 227.163 223.41 231.106 223.812 232.655C224.995 233.157 244.308 219.966 240.032 214.617ZM110.06 195.743C112.547 196.509 116.225 201.551 118.743 200.131C119.791 199.539 132.929 182.091 133.197 180.917C133.728 178.59 126.531 170.921 124.724 172.162L110.06 195.743ZM211.795 207.17L201.357 215.029L209.088 233.174C211.639 231.4 219.506 227.661 220.041 224.599C220.518 221.876 214.863 206.724 211.795 207.17ZM168.16 199.867C164.649 197.45 162.886 193.91 158.271 193.102C157.021 196.366 154.283 220.945 155.503 221.723L164.642 222.831L168.16 199.867ZM40.1604 149.935L28.8777 144.113C26.2533 145.65 4.19356 154.033 5.57333 157.093C14.4173 160.538 25.0651 158.648 33.3731 154.513C34.2307 154.086 40.5138 150.672 40.1604 149.935ZM196.401 213.653L184.955 205.862C179.41 210.822 172.432 215.105 170.231 222.681C168.148 229.848 169.665 243.565 178.488 245.119L171.446 228.87L196.401 213.653ZM4.15856 158.354C-3.36342 181.827 37.2344 178.478 41.6823 161.96C42.0473 160.604 42.9764 151.184 40.341 151.823C31.0425 159.69 15.6255 163.602 4.15856 158.354ZM198.919 215.647C197.535 215.358 174.788 227.837 174.08 229.06C173.449 230.153 173.674 230.457 173.839 231.511C173.95 232.223 179.745 243.958 180.326 244.385C181.557 245.289 186.694 243.367 188.518 242.75C191.328 241.8 205.203 235.849 206.307 234.131C207.887 231.668 201.044 216.091 198.919 215.647ZM207.157 241.496C207.745 243.406 218.789 236.538 219.783 235.36C222.161 232.546 221.202 231.468 221.509 228.133C221.156 227.557 209.992 233.83 209.51 234.302C208.006 235.771 208.646 239.607 207.156 241.495L207.157 241.496ZM154.133 207.888C152.365 206.806 141.619 203.478 140.952 204.824L139.143 229.982L151.824 232.276L154.133 207.887L154.133 207.888ZM78.6018 213.246L91.0768 219.648L93.0951 219.001L106.893 196.698L106.769 194.9L94.5013 186.879L78.6018 213.246ZM128.475 229.385L137.38 229.674C136.978 225.631 140.678 207.125 139.064 204.966C137.994 203.534 131.455 202.245 130.6 203.52L128.475 229.385ZM103.542 225.846L116.042 203.27L108.653 197.054L94.246 219.845L94.5864 220.946L103.542 225.846ZM182.264 247.055C190.595 248.726 205.231 246.753 207.128 236.952L182.264 247.055ZM133.596 262.26C148.822 264.451 153.948 245.37 151.885 233.323L140.069 232.173C140.324 237.508 141.461 242.775 140.005 248.112C138.561 253.409 135.349 257.2 133.597 262.259L133.596 262.26ZM131.229 261.325C136.459 254.744 141.321 242.789 138.704 234.383C137.439 230.32 133.871 232.009 130.341 231.491L129.127 232.634C129.365 234.86 127.903 262.205 131.229 261.325ZM91.4756 221.991L78.3878 215.195L75.7244 216.385C71.9735 226.218 64.2677 236.918 61.6098 246.923C60.8951 249.615 61.3023 251.921 63.0282 254.137C63.9851 254.991 68.7543 253.118 69.8976 252.491C80.5129 246.673 85.2814 231.664 91.4756 221.991ZM102.147 227.117L93.0866 222.695C86.856 232.155 83.2694 243.619 74.578 251.298L66.0557 256.373C71.8359 259.531 75.0967 259.325 80.6069 256.223C90.7687 250.501 96.5327 236.906 102.145 227.118L102.147 227.117Z" fill="url(#paint0_linear_126_91)"/>
<defs>
<linearGradient id="paint0_linear_126_91" x1="512.597" y1="64.1733" x2="173.597" y2="176.173" gradientUnits="userSpaceOnUse">
<stop stop-color="#383838" stop-opacity="0"/>
<stop offset="1" stop-color="#383838"/>
</linearGradient>
</defs>
</svg>
